<svg width="20" height="20" viewBox="0 0 20 20" fill="none" xmlns="http://www.w3.org/2000/svg">
  <path d="M10 10C12.0711 10 13.75 8.32107 13.75 6.25C13.75 4.17893 12.0711 2.5 10 2.5C7.92893 2.5 6.25 4.17893 6.25 6.25C6.25 8.32107 7.92893 10 10 10Z" stroke="#07C05F" stroke-width="1.5" stroke-linecap="round" stroke-linejoin="round"/>
  <path d="M4.375 17.5C4.375 14.7386 6.86275 12.5 10 12.5C13.1373 12.5 15.625 14.7386 15.625 17.5" stroke="#07C05F" stroke-width="1.5" stroke-linecap="round" stroke-linejoin="round"/>
  <path d="M15.625 8.125C16.5385 8.125 17.3125 7.47678 17.45 6.625C17.55 6.00536 17.125 5.625 16.5 5.625" stroke="#07C05F" stroke-width="1.5" stroke-linecap="round" stroke-linejoin="round"/>
  <path d="M17.45 6.625C17.45 6.625 17.875 8.125 19.375 8.125" stroke="#07C05F" stroke-width="1.5" stroke-linecap="round" stroke-linejoin="round"/>
</svg>
